# xmcd
#
# Track frame offsets: 
#        150
#        49263
#        80947
#        107841
#        145013
#        187711
#
# Disc length: 2904 seconds
#
# Revision: 0
# Processed by: cddbd v1.5.2PL0 Copyright (c) Steve Scherf et al.
# Submitted via: ExactAudioCopy v1.0b1
#
DISCID=4c0b5606
DTITLE=Dave Brubeck  - Dave Brubeck at Storyville (1954)  
DYEAR=1900
DGENRE=
TTITLE0=On the Alamo
TTITLE1=Don't Worry 'Bout Me
TTITLE2=Here Lies Love
TTITLE3=Gone with the Wind
TTITLE4=When You're Smiling (The Whole World Smiles with You)
TTITLE5=Back Bay Blues
EXTD=
EXTT0=
EXTT1=
EXTT2=
EXTT3=
EXTT4=
EXTT5=
PLAYORDER=
